<svg xmlns="http://www.w3.org/2000/svg" width="19.978" height="20" viewBox="0 0 19.978 20">
  <g id="attach-paperclip-symbol" transform="translate(-0.344 -0.001)">
    <g id="_x34__17_" transform="translate(0.343 0.001)">
      <g id="Group_86648" data-name="Group 86648" transform="translate(0 0)">
        <path id="Path_139856" data-name="Path 139856" d="M19.305,7.281,9.141,17.332a4.347,4.347,0,0,1-6.1,0,4.231,4.231,0,0,1,0-6.031L12.19,2.254a2.9,2.9,0,0,1,4.066,0,2.821,2.821,0,0,1,0,4.021L7.108,15.322a1.449,1.449,0,0,1-2.033,0,1.411,1.411,0,0,1,0-2.01L13.206,5.27,12.189,4.265,4.058,12.307a2.821,2.821,0,0,0,0,4.021,2.9,2.9,0,0,0,4.066,0l9.148-9.046a4.231,4.231,0,0,0,0-6.031,4.347,4.347,0,0,0-6.1,0L1.517,10.8l.035.035a5.637,5.637,0,0,0,.473,7.5,5.8,5.8,0,0,0,7.588.468l.035.035L20.321,8.286Z" transform="translate(-0.343 -0.001)"/>
      </g>
    </g>
  </g>
</svg>
