<svg id="Group_86274" data-name="Group 86274" xmlns="http://www.w3.org/2000/svg" width="80" height="80" viewBox="0 0 80 80">
  <rect id="Rectangle_23878" data-name="Rectangle 23878" width="80" height="80" fill="#bfbfbf" opacity="0"/>
  <g id="Group_86273" data-name="Group 86273">
    <rect id="Rectangle_17" data-name="Rectangle 17" width="80" height="80" fill="#bfbfbf" opacity="0"/>
    <g id="profile" transform="translate(0.175 0.175)">
      <circle id="Ellipse_2" data-name="Ellipse 2" cx="17.315" cy="17.315" r="17.315" transform="translate(14.066)" fill="#bfbfbf"/>
      <path id="Path_59325" data-name="Path 59325" d="M39.942,42.475a8.68,8.68,0,0,1,.7-9.7,8.68,8.68,0,0,1-.7-9.7l2.8-4.848a8.683,8.683,0,0,1,7.5-4.329,8.817,8.817,0,0,1,1.25.09,8.99,8.99,0,0,1,.4-.821A16.334,16.334,0,0,0,45.885,12H16.449A16.469,16.469,0,0,0,0,28.449V40.57a2.6,2.6,0,0,0,2.6,2.6H40.341Z" transform="translate(0 29.556)" fill="#bfbfbf"/>
      <path id="Path_59326" data-name="Path 59326" d="M42.649,31.939a12.585,12.585,0,0,0,.163-1.624,13.162,13.162,0,0,0-.163-1.624l3.12-2.362a1.733,1.733,0,0,0,.454-2.247l-2.8-4.848A1.732,1.732,0,0,0,41.25,18.5l-3.591,1.513a12.866,12.866,0,0,0-2.836-1.686l-.478-3.813A1.734,1.734,0,0,0,32.627,13h-5.6a1.731,1.731,0,0,0-1.718,1.517l-.478,3.813A12.921,12.921,0,0,0,22,20.016L18.4,18.5a1.728,1.728,0,0,0-2.171.731l-2.8,4.848a1.734,1.734,0,0,0,.454,2.247L17,28.691a12.586,12.586,0,0,0-.163,1.624A13.161,13.161,0,0,0,17,31.939L13.885,34.3a1.733,1.733,0,0,0-.454,2.247l2.8,4.852a1.732,1.732,0,0,0,2.171.731L22,40.614A12.866,12.866,0,0,0,24.831,42.3l.478,3.813a1.728,1.728,0,0,0,1.714,1.517h5.6a1.731,1.731,0,0,0,1.718-1.517l.478-3.813a12.921,12.921,0,0,0,2.836-1.686l3.591,1.513a1.728,1.728,0,0,0,2.171-.731l2.8-4.852a1.734,1.734,0,0,0-.454-2.247Zm-12.824,5.3a6.926,6.926,0,1,1,6.926-6.926A6.924,6.924,0,0,1,29.825,37.241Z" transform="translate(33.195 32.019)" fill="#bfbfbf"/>
    </g>
  </g>
</svg>
