<svg xmlns="http://www.w3.org/2000/svg" width="34" height="34" viewBox="0 0 34 34">
  <g id="Group_86716" data-name="Group 86716" transform="translate(-1178 -366)">
    <path id="Union_8" data-name="Union 8" d="M-4629.552,118a4.447,4.447,0,0,1-4.447-4.447v-25.1A4.448,4.448,0,0,1-4629.552,84h25.105A4.448,4.448,0,0,1-4600,88.448v25.1a4.448,4.448,0,0,1-4.449,4.447Z" transform="translate(5812 282)" fill="#bfbfbf" opacity="0.5"/>
    <g id="_2" data-name="2" transform="translate(1184 375)">
      <path id="Path_139872" data-name="Path 139872" d="M56.641,80.51a1.59,1.59,0,0,1-.8-.213l-9.053-5.236A1.593,1.593,0,0,1,46,73.686V65H67.282v8.686a1.593,1.593,0,0,1-.793,1.375L57.436,80.3A1.59,1.59,0,0,1,56.641,80.51Z" transform="translate(-46 -65)" fill="#e45826"/>
      <path id="Path_139873" data-name="Path 139873" d="M8.237,9.374a1.578,1.578,0,0,1-.654-.141l-6.649-3A1.591,1.591,0,0,1,0,4.781V0H16.474V4.78a1.591,1.591,0,0,1-.934,1.447l-6.649,3A1.578,1.578,0,0,1,8.237,9.374Z" transform="translate(2.404 0)" fill="#fc7849"/>
      <path id="Path_139874" data-name="Path 139874" d="M6.649,7.4a1.579,1.579,0,0,1-.643-.136L.945,5.016A1.589,1.589,0,0,1,0,3.564V0H13.3V3.564a1.589,1.589,0,0,1-.945,1.452L7.293,7.259A1.579,1.579,0,0,1,6.649,7.4Z" transform="translate(3.992 0)" fill="#fba589"/>
    </g>
  </g>
</svg>
