<svg xmlns="http://www.w3.org/2000/svg" width="109" height="17" viewBox="0 0 109 17">
  <g id="Group_86417" data-name="Group 86417" transform="translate(-1077 -1910)">
    <path id="Polygon_7" data-name="Polygon 7" d="M8.5,0l2.007,6.493H17l-5.253,4.013L13.753,17,8.5,12.987,3.247,17l2.007-6.493L0,6.493H6.493Z" transform="translate(1077 1910)" fill="#f0a500"/>
    <path id="Polygon_8" data-name="Polygon 8" d="M8.5,0l2.007,6.493H17l-5.253,4.013L13.753,17,8.5,12.987,3.247,17l2.007-6.493L0,6.493H6.493Z" transform="translate(1100 1910)" fill="#f0a500"/>
    <path id="Polygon_9" data-name="Polygon 9" d="M8.5,0l2.007,6.493H17l-5.253,4.013L13.753,17,8.5,12.987,3.247,17l2.007-6.493L0,6.493H6.493Z" transform="translate(1123 1910)" fill="#f0a500"/>
    <path id="Polygon_10" data-name="Polygon 10" d="M8.5,0l2.007,6.493H17l-5.253,4.013L13.753,17,8.5,12.987,3.247,17l2.007-6.493L0,6.493H6.493Z" transform="translate(1146 1910)" fill="#f0a500"/>
    <path id="Polygon_11" data-name="Polygon 11" d="M8.5,0l2.007,6.493H17l-5.253,4.013L13.753,17,8.5,12.987,3.247,17l2.007-6.493L0,6.493H6.493Z" transform="translate(1169 1910)" fill="#919191"/>
  </g>
</svg>
