<svg xmlns="http://www.w3.org/2000/svg" width="34" height="34" viewBox="0 0 34 34">
  <g id="Group_86715" data-name="Group 86715" transform="translate(-1178 -417)">
    <path id="Union_8" data-name="Union 8" d="M-4629.552,118a4.447,4.447,0,0,1-4.447-4.447v-25.1A4.448,4.448,0,0,1-4629.552,84h25.105A4.448,4.448,0,0,1-4600,88.448v25.1a4.448,4.448,0,0,1-4.449,4.447Z" transform="translate(5812 333)" fill="#bfbfbf" opacity="0.5"/>
    <g id="_3" data-name="3" transform="translate(1184 426)">
      <path id="Path_139875" data-name="Path 139875" d="M56.641,80.51a1.59,1.59,0,0,1-.8-.213l-9.053-5.236A1.593,1.593,0,0,1,46,73.686V65H67.282v8.686a1.593,1.593,0,0,1-.793,1.375L57.436,80.3A1.59,1.59,0,0,1,56.641,80.51Z" transform="translate(-46 -65)" fill="#f0a500"/>
      <path id="Path_139876" data-name="Path 139876" d="M9.984,11.628a1.576,1.576,0,0,1-.665-.146L.923,7.609A1.588,1.588,0,0,1,0,6.167V0H19.968V6.167a1.588,1.588,0,0,1-.923,1.442l-8.4,3.872A1.577,1.577,0,0,1,9.984,11.628Z" transform="translate(0.657 0)" fill="#c78c0c"/>
      <path id="Path_139877" data-name="Path 139877" d="M8.237,9.374a1.578,1.578,0,0,1-.654-.141l-6.649-3A1.591,1.591,0,0,1,0,4.781V0H16.474V4.78a1.591,1.591,0,0,1-.934,1.447l-6.649,3A1.578,1.578,0,0,1,8.237,9.374Z" transform="translate(2.404 0)" fill="#a77509"/>
      <path id="Path_139878" data-name="Path 139878" d="M6.49,6.921a1.58,1.58,0,0,1-.621-.127L.967,4.712A1.586,1.586,0,0,1,0,3.25V0H12.98V3.25a1.586,1.586,0,0,1-.967,1.461l-4.9,2.083a1.58,1.58,0,0,1-.621.126Z" transform="translate(4.151 0)" fill="#775304"/>
      <path id="Path_139879" data-name="Path 139879" d="M4.539,1.556a.159.159,0,0,1,.29,0l.892,2.006a.159.159,0,0,0,.127.093l2.137.253a.159.159,0,0,1,.09.273l-1.591,1.5a.159.159,0,0,0-.047.146L6.866,8a.159.159,0,0,1-.236.168L4.764,7.087a.159.159,0,0,0-.159,0L2.738,8.17A.159.159,0,0,1,2.5,8L2.93,5.83a.159.159,0,0,0-.047-.146l-1.591-1.5a.159.159,0,0,1,.09-.273l2.138-.253a.159.159,0,0,0,.127-.093Z" transform="translate(5.957 5.054)" fill="#fff"/>
    </g>
  </g>
</svg>
