<svg xmlns="http://www.w3.org/2000/svg" width="34" height="34" viewBox="0 0 34 34">
  <g id="Group_86714" data-name="Group 86714" transform="translate(-1178 -315)">
    <path id="Union_8" data-name="Union 8" d="M-4629.552,118a4.447,4.447,0,0,1-4.447-4.447v-25.1A4.448,4.448,0,0,1-4629.552,84h25.105A4.448,4.448,0,0,1-4600,88.448v25.1a4.448,4.448,0,0,1-4.449,4.447Z" transform="translate(5812 231)" fill="#bfbfbf" opacity="0.5"/>
    <g id="_1" data-name="1" transform="translate(1184 324)">
      <path id="Path_139870" data-name="Path 139870" d="M56.641,80.51a1.59,1.59,0,0,1-.8-.213l-9.053-5.236A1.593,1.593,0,0,1,46,73.686V65H67.282v8.686a1.593,1.593,0,0,1-.793,1.375L57.436,80.3A1.59,1.59,0,0,1,56.641,80.51Z" transform="translate(-46 -65)" fill="#b2a7a7"/>
      <path id="Path_139871" data-name="Path 139871" d="M53.464,72.732a1.58,1.58,0,0,1-.6-.119L46.985,70.2A1.583,1.583,0,0,1,46,68.727V65H60.929v3.727a1.583,1.583,0,0,1-.985,1.469l-5.876,2.417A1.58,1.58,0,0,1,53.464,72.732Z" transform="translate(-42.824 -65)" fill="#dcdcdc"/>
    </g>
  </g>
</svg>
