<svg xmlns="http://www.w3.org/2000/svg" width="270.305" height="68" viewBox="0 0 270.305 68">
  <g id="Group_89048" data-name="Group 89048" transform="translate(-178.16 -212.682)">
    <path id="Path_135464" data-name="Path 135464" d="M9.433-76.241a1.826,1.826,0,0,1-1.073-.346,1.761,1.761,0,0,1-.673-.855L2.3-93.6a2.835,2.835,0,0,1,.018-1.838,1.325,1.325,0,0,1,1.364-.71,1.721,1.721,0,0,1,1.146.382,2.752,2.752,0,0,1,.746,1.292l4.585,14.337H8.887l4.33-14.628a2.07,2.07,0,0,1,.619-1,1.761,1.761,0,0,1,1.2-.383,1.776,1.776,0,0,1,1.183.382,1.808,1.808,0,0,1,.6,1l3.53,13.754H19.8L24.1-94.471q.509-1.674,1.892-1.674a1.407,1.407,0,0,1,1.383.71,2.3,2.3,0,0,1-.036,1.838L21.95-77.441a1.586,1.586,0,0,1-.619.855,1.8,1.8,0,0,1-1.092.346,1.908,1.908,0,0,1-1.092-.346,1.539,1.539,0,0,1-.655-.855L14.746-91.3h.364L11.18-77.441a1.561,1.561,0,0,1-.637.855A1.882,1.882,0,0,1,9.433-76.241Zm31.146.146a10.285,10.285,0,0,1-5.2-1.292,9.363,9.363,0,0,1-3.548-3.566,10.386,10.386,0,0,1-1.292-5.221,10.461,10.461,0,0,1,1.292-5.258A9.363,9.363,0,0,1,35.375-95a10.285,10.285,0,0,1,5.2-1.292A10.212,10.212,0,0,1,45.746-95a9.363,9.363,0,0,1,3.548,3.566,10.46,10.46,0,0,1,1.293,5.258,10.5,10.5,0,0,1-1.274,5.221,9.232,9.232,0,0,1-3.53,3.566,10.285,10.285,0,0,1-5.2,1.292Zm0-3.275a6.379,6.379,0,0,0,3.348-.873,6.107,6.107,0,0,0,2.274-2.4,7.36,7.36,0,0,0,.819-3.53,7.467,7.467,0,0,0-.819-3.548,6.076,6.076,0,0,0-2.274-2.42,6.379,6.379,0,0,0-3.348-.873,6.379,6.379,0,0,0-3.348.873,6.2,6.2,0,0,0-2.292,2.42,7.336,7.336,0,0,0-.835,3.548,7.23,7.23,0,0,0,.837,3.53,6.238,6.238,0,0,0,2.292,2.4,6.379,6.379,0,0,0,3.346.873Zm18.266-9.314a7.261,7.261,0,0,1,1.073-3.91,7.867,7.867,0,0,1,2.894-2.75,8.052,8.052,0,0,1,4-1.019,5.979,5.979,0,0,1,3.257.71,1.5,1.5,0,0,1,.819,1.692,1.4,1.4,0,0,1-.418.782,1.445,1.445,0,0,1-.71.346,2.155,2.155,0,0,1-.873-.036,10.2,10.2,0,0,0-4.184-.073,5.667,5.667,0,0,0-2.93,1.492A3.781,3.781,0,0,0,60.7-88.685Zm.037,12.443a1.865,1.865,0,0,1-1.346-.455,1.81,1.81,0,0,1-.473-1.364V-94.325a1.821,1.821,0,0,1,.473-1.346,1.821,1.821,0,0,1,1.346-.473,1.853,1.853,0,0,1,1.364.455,1.853,1.853,0,0,1,.455,1.364V-78.06a1.865,1.865,0,0,1-.455,1.346A1.81,1.81,0,0,1,58.882-76.241Zm20.3-7.277L76.93-85.992,88.1-95.962a1.609,1.609,0,0,1,1.219-.473,1.584,1.584,0,0,1,1.146.582,1.587,1.587,0,0,1,.472,1.2,1.69,1.69,0,0,1-.582,1.164Zm-1.71,7.277a1.747,1.747,0,0,1-1.292-.491,1.747,1.747,0,0,1-.491-1.292v-24.852a1.746,1.746,0,0,1,.491-1.292,1.747,1.747,0,0,1,1.292-.491,1.746,1.746,0,0,1,1.292.491,1.747,1.747,0,0,1,.491,1.292v24.852a1.747,1.747,0,0,1-.491,1.292A1.747,1.747,0,0,1,77.475-76.241Zm12.99-.182A1.771,1.771,0,0,1,89.174-76a1.636,1.636,0,0,1-1.183-.637l-7.386-9.133,2.547-2.4,7.568,9.315a1.719,1.719,0,0,1,.418,1.255A1.689,1.689,0,0,1,90.465-76.423Zm16.883.327a9.851,9.851,0,0,1-5.094-1.328,9.728,9.728,0,0,1-3.566-3.62,10.5,10.5,0,0,1-1.346-5.167V-102.8a1.786,1.786,0,0,1,.528-1.346,1.835,1.835,0,0,1,1.328-.509,1.819,1.819,0,0,1,1.346.509,1.819,1.819,0,0,1,.509,1.346v9.824a9.362,9.362,0,0,1,3.075-2.42,8.776,8.776,0,0,1,3.948-.891,8.762,8.762,0,0,1,4.767,1.328,9.438,9.438,0,0,1,3.329,3.6,10.726,10.726,0,0,1,1.219,5.149,10.117,10.117,0,0,1-1.328,5.167,9.867,9.867,0,0,1-3.584,3.62A9.921,9.921,0,0,1,107.349-76.1Zm0-3.275a6.211,6.211,0,0,0,3.311-.891,6.439,6.439,0,0,0,2.311-2.456,7.163,7.163,0,0,0,.855-3.493,7.031,7.031,0,0,0-.855-3.493,6.513,6.513,0,0,0-2.311-2.42,6.211,6.211,0,0,0-3.311-.891,6.238,6.238,0,0,0-3.293.891,6.329,6.329,0,0,0-2.311,2.42,7.153,7.153,0,0,0-.837,3.493,7.288,7.288,0,0,0,.837,3.493,6.261,6.261,0,0,0,2.311,2.456A6.238,6.238,0,0,0,107.349-79.37ZM132.892-76.1a10.285,10.285,0,0,1-5.2-1.292,9.363,9.363,0,0,1-3.548-3.566,10.386,10.386,0,0,1-1.292-5.221,10.46,10.46,0,0,1,1.292-5.258A9.363,9.363,0,0,1,127.689-95a10.285,10.285,0,0,1,5.2-1.292A10.212,10.212,0,0,1,138.059-95a9.363,9.363,0,0,1,3.548,3.566,10.46,10.46,0,0,1,1.292,5.258,10.5,10.5,0,0,1-1.274,5.221,9.232,9.232,0,0,1-3.53,3.566A10.285,10.285,0,0,1,132.892-76.1Zm0-3.275a6.379,6.379,0,0,0,3.348-.873,6.107,6.107,0,0,0,2.274-2.4,7.361,7.361,0,0,0,.819-3.53,7.467,7.467,0,0,0-.819-3.548,6.075,6.075,0,0,0-2.274-2.42,6.379,6.379,0,0,0-3.348-.873,6.379,6.379,0,0,0-3.348.873,6.2,6.2,0,0,0-2.292,2.42,7.336,7.336,0,0,0-.837,3.548,7.23,7.23,0,0,0,.837,3.53,6.238,6.238,0,0,0,2.292,2.4A6.379,6.379,0,0,0,132.892-79.37ZM158.4-76.1a10.285,10.285,0,0,1-5.2-1.292,9.363,9.363,0,0,1-3.548-3.566,10.386,10.386,0,0,1-1.292-5.221,10.461,10.461,0,0,1,1.292-5.258A9.363,9.363,0,0,1,153.2-95a10.285,10.285,0,0,1,5.2-1.292A10.212,10.212,0,0,1,163.565-95a9.363,9.363,0,0,1,3.548,3.566,10.46,10.46,0,0,1,1.292,5.258,10.5,10.5,0,0,1-1.274,5.221,9.232,9.232,0,0,1-3.53,3.566A10.285,10.285,0,0,1,158.4-76.1Zm0-3.275a6.379,6.379,0,0,0,3.348-.873,6.107,6.107,0,0,0,2.274-2.4,7.36,7.36,0,0,0,.819-3.53,7.468,7.468,0,0,0-.819-3.548,6.076,6.076,0,0,0-2.274-2.42,6.379,6.379,0,0,0-3.348-.873,6.379,6.379,0,0,0-3.348.873,6.2,6.2,0,0,0-2.292,2.42,7.336,7.336,0,0,0-.837,3.548,7.23,7.23,0,0,0,.837,3.53,6.238,6.238,0,0,0,2.292,2.4A6.379,6.379,0,0,0,158.4-79.37Zm19.976-4.148-2.255-2.474,11.171-9.97a1.609,1.609,0,0,1,1.219-.473,1.584,1.584,0,0,1,1.146.582,1.587,1.587,0,0,1,.473,1.2,1.69,1.69,0,0,1-.582,1.164Zm-1.71,7.277a1.747,1.747,0,0,1-1.292-.491,1.747,1.747,0,0,1-.491-1.292v-24.852a1.746,1.746,0,0,1,.491-1.292,1.746,1.746,0,0,1,1.292-.491,1.747,1.747,0,0,1,1.292.491,1.747,1.747,0,0,1,.491,1.292v24.852a1.747,1.747,0,0,1-.491,1.292A1.747,1.747,0,0,1,176.664-76.241Zm12.99-.182a1.771,1.771,0,0,1-1.292.418,1.636,1.636,0,0,1-1.183-.637l-7.386-9.133,2.547-2.4,7.568,9.314a1.719,1.719,0,0,1,.418,1.255,1.688,1.688,0,0,1-.674,1.184Z" transform="translate(258.132 334.871)" fill="#1b1a17"/>
    <g id="Group_89047" data-name="Group 89047" transform="translate(177.863 213.058)">
      <rect id="Rectangle_25848" data-name="Rectangle 25848" width="71" height="68" rx="10" transform="translate(0.297 -0.376)" fill="#1b1a17"/>
      <g id="Group_89046" data-name="Group 89046" transform="translate(10.851 20.459)">
        <g id="Path_135465" data-name="Path 135465" transform="translate(0 0)">
          <path id="Path_85053" data-name="Path 85053" d="M14.928,25.018l-.228-.354L-1.564-.581-1.834-1H1.041l.08.124L14.877,20.477,28.632-.876,28.712-1h2.977l-.27.419L15.156,24.664Z" transform="translate(1.879 1.272)" fill="#f0a500"/>
          <path id="Path_85054" data-name="Path 85054" d="M14.807,23.788,31.071-1.457H28.739L14.756,20.25.771-1.457H-1.457L14.807,23.788m0,.543a.543.543,0,0,1-.457-.249L-1.913-1.163a.543.543,0,0,1-.02-.554A.543.543,0,0,1-1.457-2H.771a.543.543,0,0,1,.457.249l13.528,21,13.527-21A.544.544,0,0,1,28.739-2h2.331a.543.543,0,0,1,.477.283.543.543,0,0,1-.02.554L15.263,24.083A.543.543,0,0,1,14.807,24.332Z" transform="translate(2 2)" fill="#f0a500"/>
        </g>
        <g id="Path_135466" data-name="Path 135466" transform="translate(15.776)">
          <path id="Path_85055" data-name="Path 85055" d="M14.928,25.018l-.228-.354L-1.564-.581-1.834-1H31.689l-.27.419L15.156,24.664ZM2.876,1.465,14.928,20.171,26.979,1.465Z" transform="translate(1.879 1.272)" fill="#f0a500"/>
          <path id="Path_85056" data-name="Path 85056" d="M14.807,23.788,31.071-1.457H-1.457L14.807,23.788M2.258.465h25.1L14.807,19.944,2.258.465M14.807,24.331a.543.543,0,0,1-.457-.249L-1.913-1.163a.543.543,0,0,1-.02-.554A.543.543,0,0,1-1.457-2H31.071a.543.543,0,0,1,.477.283.543.543,0,0,1-.02.554L15.263,24.082A.543.543,0,0,1,14.807,24.331ZM3.253,1.008,14.807,18.941,26.36,1.008Z" transform="translate(2 2)" fill="#f0a500"/>
        </g>
      </g>
      <g id="Group_89049" data-name="Group 89049" transform="translate(10.851 20.459)">
        <g id="Path_135465-2" data-name="Path 135465" transform="translate(0 0)">
          <path id="Path_85057" data-name="Path 85057" d="M14.928,25.018l-.228-.354L-1.564-.581-1.834-1H1.041l.08.124L14.877,20.477,28.632-.876,28.712-1h2.977l-.27.419L15.156,24.664Z" transform="translate(1.879 1.272)" fill="#f0a500"/>
          <path id="Path_85058" data-name="Path 85058" d="M14.807,23.788,31.071-1.457H28.739L14.756,20.25.771-1.457H-1.457L14.807,23.788m0,.543a.543.543,0,0,1-.457-.249L-1.913-1.163a.543.543,0,0,1-.02-.554A.543.543,0,0,1-1.457-2H.771a.543.543,0,0,1,.457.249l13.528,21,13.527-21A.544.544,0,0,1,28.739-2h2.331a.543.543,0,0,1,.477.283.543.543,0,0,1-.02.554L15.263,24.083A.543.543,0,0,1,14.807,24.332Z" transform="translate(2 2)" fill="#f0a500"/>
        </g>
        <g id="Path_135466-2" data-name="Path 135466" transform="translate(15.776)">
          <path id="Path_85059" data-name="Path 85059" d="M14.928,25.018l-.228-.354L-1.564-.581-1.834-1H31.689l-.27.419L15.156,24.664ZM2.876,1.465,14.928,20.171,26.979,1.465Z" transform="translate(1.879 1.272)" fill="#f0a500"/>
          <path id="Path_85060" data-name="Path 85060" d="M14.807,23.788,31.071-1.457H-1.457L14.807,23.788M2.258.465h25.1L14.807,19.944,2.258.465M14.807,24.331a.543.543,0,0,1-.457-.249L-1.913-1.163a.543.543,0,0,1-.02-.554A.543.543,0,0,1-1.457-2H31.071a.543.543,0,0,1,.477.283.543.543,0,0,1-.02.554L15.263,24.082A.543.543,0,0,1,14.807,24.331ZM3.253,1.008,14.807,18.941,26.36,1.008Z" transform="translate(2 2)" fill="#f0a500"/>
        </g>
      </g>
    </g>
  </g>
</svg>
