<svg xmlns="http://www.w3.org/2000/svg" width="173.604" height="19.808" viewBox="0 0 173.604 19.808">
  <g id="Group_86366" data-name="Group 86366" transform="translate(-79.053 -45.715)">
    <g id="Group_89048" data-name="Group 89048" transform="translate(-106.16 -178.682)">
      <path id="Path_135464" data-name="Path 135464" d="M7.021-85.666A1.22,1.22,0,0,1,6.3-85.9a1.177,1.177,0,0,1-.45-.571l-3.6-10.8a1.9,1.9,0,0,1,.012-1.228.886.886,0,0,1,.912-.475,1.15,1.15,0,0,1,.766.255,1.839,1.839,0,0,1,.5.863l3.064,9.582H6.656L9.55-98.044a1.384,1.384,0,0,1,.413-.669,1.177,1.177,0,0,1,.8-.256,1.187,1.187,0,0,1,.79.255,1.208,1.208,0,0,1,.4.669l2.359,9.192h-.365l2.87-9q.34-1.119,1.264-1.119a.94.94,0,0,1,.924.474,1.538,1.538,0,0,1-.024,1.228l-3.6,10.8a1.06,1.06,0,0,1-.413.571,1.2,1.2,0,0,1-.73.231,1.275,1.275,0,0,1-.73-.231,1.029,1.029,0,0,1-.438-.571l-2.5-9.265h.243L8.188-86.469a1.043,1.043,0,0,1-.426.571A1.258,1.258,0,0,1,7.021-85.666Zm20.816.1a6.874,6.874,0,0,1-3.478-.863,6.258,6.258,0,0,1-2.371-2.383,6.942,6.942,0,0,1-.863-3.49,6.991,6.991,0,0,1,.863-3.514A6.258,6.258,0,0,1,24.36-98.2a6.874,6.874,0,0,1,3.478-.863,6.825,6.825,0,0,1,3.453.863,6.258,6.258,0,0,1,2.371,2.383,6.991,6.991,0,0,1,.864,3.514,7.02,7.02,0,0,1-.851,3.49,6.171,6.171,0,0,1-2.359,2.383,6.874,6.874,0,0,1-3.478.863Zm0-2.189a4.263,4.263,0,0,0,2.237-.584,4.081,4.081,0,0,0,1.52-1.605,4.919,4.919,0,0,0,.547-2.359,4.991,4.991,0,0,0-.547-2.371,4.061,4.061,0,0,0-1.52-1.617,4.264,4.264,0,0,0-2.237-.584,4.264,4.264,0,0,0-2.237.584,4.147,4.147,0,0,0-1.532,1.617,4.9,4.9,0,0,0-.558,2.371,4.832,4.832,0,0,0,.559,2.359A4.169,4.169,0,0,0,25.6-88.341a4.264,4.264,0,0,0,2.237.583Zm12.208-6.225a4.853,4.853,0,0,1,.717-2.613A5.258,5.258,0,0,1,42.7-98.433a5.381,5.381,0,0,1,2.675-.681,4,4,0,0,1,2.177.474,1,1,0,0,1,.547,1.131.934.934,0,0,1-.28.523.966.966,0,0,1-.474.231,1.44,1.44,0,0,1-.584-.024,6.817,6.817,0,0,0-2.8-.049,3.787,3.787,0,0,0-1.958,1,2.527,2.527,0,0,0-.717,1.848Zm.025,8.316a1.246,1.246,0,0,1-.9-.3,1.21,1.21,0,0,1-.316-.912V-97.753a1.217,1.217,0,0,1,.316-.9,1.217,1.217,0,0,1,.9-.316,1.239,1.239,0,0,1,.912.3,1.239,1.239,0,0,1,.3.912v10.871a1.246,1.246,0,0,1-.3.9A1.21,1.21,0,0,1,40.07-85.666ZM53.64-90.53l-1.508-1.654L59.6-98.847a1.075,1.075,0,0,1,.815-.316,1.059,1.059,0,0,1,.766.389,1.06,1.06,0,0,1,.315.8,1.13,1.13,0,0,1-.389.778ZM52.5-85.666a1.167,1.167,0,0,1-.863-.328,1.167,1.167,0,0,1-.328-.863v-16.61a1.167,1.167,0,0,1,.328-.863,1.167,1.167,0,0,1,.863-.328,1.167,1.167,0,0,1,.863.328,1.167,1.167,0,0,1,.328.863v16.61a1.167,1.167,0,0,1-.328.863A1.167,1.167,0,0,1,52.5-85.666Zm8.682-.122a1.183,1.183,0,0,1-.863.28,1.093,1.093,0,0,1-.79-.426l-4.936-6.1,1.7-1.605,5.058,6.226a1.149,1.149,0,0,1,.28.839A1.129,1.129,0,0,1,61.179-85.788Zm11.284.219a6.584,6.584,0,0,1-3.4-.888,6.5,6.5,0,0,1-2.383-2.42,7.02,7.02,0,0,1-.9-3.453v-11.089a1.194,1.194,0,0,1,.353-.9,1.226,1.226,0,0,1,.888-.34,1.216,1.216,0,0,1,.9.34,1.216,1.216,0,0,1,.34.9v6.566a6.257,6.257,0,0,1,2.055-1.617,5.865,5.865,0,0,1,2.639-.6,5.856,5.856,0,0,1,3.186.888A6.308,6.308,0,0,1,78.36-95.77a7.169,7.169,0,0,1,.815,3.441,6.762,6.762,0,0,1-.888,3.453,6.6,6.6,0,0,1-2.4,2.42A6.631,6.631,0,0,1,72.463-85.569Zm0-2.189a4.151,4.151,0,0,0,2.213-.6,4.3,4.3,0,0,0,1.544-1.642,4.787,4.787,0,0,0,.571-2.335,4.7,4.7,0,0,0-.571-2.335,4.353,4.353,0,0,0-1.544-1.617,4.151,4.151,0,0,0-2.213-.6,4.169,4.169,0,0,0-2.2.6,4.23,4.23,0,0,0-1.545,1.617,4.781,4.781,0,0,0-.559,2.335,4.871,4.871,0,0,0,.559,2.335,4.185,4.185,0,0,0,1.544,1.642A4.169,4.169,0,0,0,72.463-87.757Zm17.072,2.189a6.874,6.874,0,0,1-3.478-.863,6.258,6.258,0,0,1-2.371-2.383,6.942,6.942,0,0,1-.863-3.49,6.991,6.991,0,0,1,.863-3.514A6.258,6.258,0,0,1,86.057-98.2a6.874,6.874,0,0,1,3.478-.863,6.825,6.825,0,0,1,3.453.863,6.258,6.258,0,0,1,2.371,2.383,6.991,6.991,0,0,1,.863,3.514,7.02,7.02,0,0,1-.851,3.49,6.17,6.17,0,0,1-2.359,2.383A6.874,6.874,0,0,1,89.534-85.569Zm0-2.189a4.264,4.264,0,0,0,2.237-.584,4.081,4.081,0,0,0,1.52-1.605,4.92,4.92,0,0,0,.547-2.359,4.991,4.991,0,0,0-.547-2.371,4.06,4.06,0,0,0-1.52-1.617,4.264,4.264,0,0,0-2.237-.584,4.264,4.264,0,0,0-2.237.584,4.146,4.146,0,0,0-1.532,1.617,4.9,4.9,0,0,0-.559,2.371,4.832,4.832,0,0,0,.559,2.359A4.169,4.169,0,0,0,87.3-88.341,4.263,4.263,0,0,0,89.534-87.757Zm17.047,2.189a6.874,6.874,0,0,1-3.478-.863,6.258,6.258,0,0,1-2.371-2.383,6.942,6.942,0,0,1-.863-3.49,6.991,6.991,0,0,1,.863-3.514A6.257,6.257,0,0,1,103.1-98.2a6.874,6.874,0,0,1,3.478-.863,6.825,6.825,0,0,1,3.453.863,6.258,6.258,0,0,1,2.371,2.383,6.991,6.991,0,0,1,.863,3.514,7.02,7.02,0,0,1-.851,3.49,6.171,6.171,0,0,1-2.359,2.383A6.874,6.874,0,0,1,106.582-85.569Zm0-2.189a4.264,4.264,0,0,0,2.237-.584,4.081,4.081,0,0,0,1.52-1.605,4.919,4.919,0,0,0,.547-2.359,4.991,4.991,0,0,0-.547-2.371,4.061,4.061,0,0,0-1.52-1.617,4.264,4.264,0,0,0-2.237-.584,4.264,4.264,0,0,0-2.237.584,4.147,4.147,0,0,0-1.532,1.617,4.9,4.9,0,0,0-.559,2.371,4.832,4.832,0,0,0,.559,2.359,4.169,4.169,0,0,0,1.532,1.605A4.263,4.263,0,0,0,106.582-87.757Zm13.351-2.772-1.507-1.654,7.466-6.663a1.075,1.075,0,0,1,.815-.316,1.059,1.059,0,0,1,.766.389,1.06,1.06,0,0,1,.316.8,1.13,1.13,0,0,1-.389.778Zm-1.143,4.864a1.167,1.167,0,0,1-.863-.328,1.167,1.167,0,0,1-.328-.863v-16.61a1.167,1.167,0,0,1,.328-.863,1.167,1.167,0,0,1,.863-.328,1.167,1.167,0,0,1,.863.328,1.167,1.167,0,0,1,.328.863v16.61a1.167,1.167,0,0,1-.328.863A1.167,1.167,0,0,1,118.79-85.666Zm8.682-.122a1.183,1.183,0,0,1-.863.28,1.093,1.093,0,0,1-.79-.426l-4.936-6.1,1.7-1.605,5.058,6.225a1.149,1.149,0,0,1,.28.839,1.128,1.128,0,0,1-.45.791Z" transform="translate(230.893 329.058)" fill="#fcfcfc"/>
    </g>
    <g id="Group_89049" data-name="Group 89049" transform="translate(79.053 47.924)">
      <g id="Path_135465" data-name="Path 135465" transform="translate(0 0)">
        <path id="Path_85057" data-name="Path 85057" d="M9.369,16.389l-.153-.237L-1.654-.72-1.834-1H.087l.054.083L9.335,13.354,18.528-.917,18.581-1h1.99l-.18.28L9.521,16.152Z" transform="translate(1.864 1.181)" fill="#f0a500"/>
        <path id="Path_85058" data-name="Path 85058" d="M9.233,15.236,20.1-1.637H18.544L9.2,12.871-.148-1.637H-1.637L9.233,15.236m0,.363a.363.363,0,0,1-.305-.166L-1.942-1.44a.363.363,0,0,1-.014-.37A.363.363,0,0,1-1.637-2H-.148a.363.363,0,0,1,.305.166L9.2,12.2,18.239-1.834A.363.363,0,0,1,18.544-2H20.1a.363.363,0,0,1,.319.189.363.363,0,0,1-.013.37L9.538,15.432A.363.363,0,0,1,9.233,15.6Z" transform="translate(2 2)" fill="#f0a500"/>
      </g>
      <g id="Path_135466" data-name="Path 135466" transform="translate(10.544)">
        <path id="Path_85059" data-name="Path 85059" d="M9.369,16.389l-.153-.237L-1.654-.72-1.834-1H20.571l-.18.28L9.521,16.152ZM1.314.647l8.055,12.5L17.423.647Z" transform="translate(1.864 1.181)" fill="#f0a500"/>
        <path id="Path_85060" data-name="Path 85060" d="M9.233,15.235,20.1-1.637H-1.637L9.233,15.235M.846-.353H17.62L9.233,12.666.846-.353M9.233,15.6a.363.363,0,0,1-.305-.166L-1.942-1.44a.363.363,0,0,1-.014-.37A.363.363,0,0,1-1.637-2H20.1a.363.363,0,0,1,.319.189.363.363,0,0,1-.013.37L9.538,15.432A.363.363,0,0,1,9.233,15.6ZM1.511.01,9.233,12,16.954.01Z" transform="translate(2 2)" fill="#f0a500"/>
      </g>
    </g>
  </g>
</svg>
